<svg class="svg-logo" xmlns="http://www.w3.org/2000/svg" viewBox="0 0 142.31 142.31"><g id="Слой_2" data-name="Слой 2"><g id="appelsin"><g id="logo"><path d="M88.58,83.56c-10.1,1.61-6.14,7.16-3.49,13.63,2.23,5.45,4.58,11.25,7,16.62C98.4,128.21,107,132,120.37,126.69c9.56-3.76,12.21-26.22,3-30.94-6.75-3.45-27.88-13.3-34.79-12.19Z"/><path d="M13.19,23.67c-.81,5.83.41,14.71,4.13,19.48,5.2,6.67,22.84,12,30.62,16.29C67.21,70,50.83,27.18,50.83,27.18S44.91,9.54,25.88,12.85C21.77,13.57,14,17.7,13.19,23.67Z" /><path d="M107.28,13.92C95.5,17.2,91.67,31.29,87.11,40.27c-2.21,4.34-5.78,13.22-3,17.71,3.57,5.72,4.78,1.79,21.05-4.18,17.29-6.33,24.07-8,24.41-17.69.21-5.76.91-13.48-3.47-17.88-3.69-3.72-14-5.65-18.84-4.31Z"/><path d="M19.26,99.91c-9.48,7.4-8.93,24.2,2.94,28,4.95,1.57,13.29,1.86,18-1.75,6.43-5,30.14-45.35,10.52-40C50.69,86.11,32,90,19.26,99.91Z" /><path d="M56.64,22.37C55,27.86,60.7,47.45,62.78,52.53c1.91,4.61,7.65,8.22,11.22,2.93,1.8-2.66,3.87-9.51,5.72-16.69,3.64-14.09,11.06-18.08,3.38-23.29-4.57-3.1-14-2.26-18.21-1.26A11.41,11.41,0,0,0,56.64,22.37Z" /><path d="M69.25,90.46C63,92.87,58.14,109.82,57.08,114.51c-1.31,5.83-1.37,10.33,1.16,12.6,2.95,2.66,12.81,3.06,16.76,2.61,3.37-.39,10.11-2.43,11.49-5.53,1.49-3.34-.57-10.24-1.76-13.7-1.12-3.26-4.11-9.49-5.39-12.69C78.15,94.83,75.24,88.17,69.25,90.46Z"/><path d="M19.33,55.28c-8.56,1.36-7.28,23.57-5.4,29.58,1.78,5.66,8.33,4.26,12.74,2.55C30.4,86,51.17,78.74,52.48,76.3,55.9,69.94,46,65.48,46,65.48S26,54.22,19.33,55.28Z" /><path d="M116.21,55c-3.92.48-21.45,8.57-24.93,11.23-4.71,3.6-3.7,8.88,1.63,10.77,3.2,1.13,23,8,27.08,9.3,7.7,2.49,8.43-2,9-8.11,1-11,2.25-25-12.74-23.19Z" /><path d="M59.66,77.14c1.25,8,9.24,6.29,16,5.32,3.86-.55,5.94-1.3,6.15-5.54.11-2.16.49-8.58-.19-10.31-.85-2.15-3.3-5.25-5.61-5.85-.93-.24-9.93-2.12-13.26,1C58.53,65.58,58.92,72.46,59.66,77.14Z" /><path d="M124.55,142.31H17.76A17.78,17.78,0,0,1,0,124.55V17.76A17.78,17.78,0,0,1,17.76,0H124.55a17.78,17.78,0,0,1,17.76,17.76V124.55A17.77,17.77,0,0,1,124.55,142.31ZM17.76,2.85A14.93,14.93,0,0,0,2.85,17.76V124.55a14.93,14.93,0,0,0,14.91,14.91H124.55a14.93,14.93,0,0,0,14.91-14.91V17.76A14.93,14.93,0,0,0,124.55,2.85Z" /></g></g></g></svg>
