<svg class="hover-none" width="75" height="75" viewBox="0 0 75 75" fill="none" xmlns="http://www.w3.org/2000/svg">
<path d="M42 31.65C42 31.7455 41.9621 31.837 41.8946 31.9046C41.8271 31.9721 41.7355 32.01 41.64 32.01H40.11C39.11 32.01 38.87 32.42 38.87 33.23V34.92H41.54C41.5863 34.9186 41.6325 34.9267 41.6756 34.9438C41.7187 34.9609 41.7578 34.9867 41.7906 35.0194C41.8234 35.0522 41.8491 35.0914 41.8662 35.1344C41.8833 35.1775 41.8914 35.2237 41.89 35.27V38.15C41.89 38.2438 41.8535 38.3339 41.7881 38.4011C41.7228 38.4683 41.6337 38.5074 41.54 38.51H38.87V45.77C38.8674 45.8637 38.8283 45.9528 38.7611 46.0181C38.6939 46.0835 38.6038 46.12 38.51 46.12H35.51C35.4172 46.12 35.3282 46.0831 35.2625 46.0175C35.1969 45.9518 35.16 45.8628 35.16 45.77V38.51H32.9C32.8045 38.51 32.713 38.4721 32.6455 38.4046C32.5779 38.337 32.54 38.2455 32.54 38.15V35.27C32.5426 35.1763 32.5817 35.0872 32.6489 35.0219C32.7162 34.9565 32.8062 34.92 32.9 34.92H35.18V32.92C35.1352 32.3529 35.2119 31.7827 35.4049 31.2475C35.598 30.7124 35.9029 30.2246 36.2995 29.8167C36.6961 29.4087 37.1751 29.0901 37.7046 28.882C38.234 28.6739 38.8018 28.5812 39.37 28.61H41.64C41.6899 28.6098 41.7393 28.62 41.7851 28.64C41.8308 28.6599 41.8719 28.6891 41.9058 28.7258C41.9396 28.7625 41.9655 28.8058 41.9817 28.853C41.9979 28.9002 42.0042 28.9503 42 29V31.65Z" fill="black"/>
</svg>
