<svg class="hover-none" width="500" height="500" viewBox="0 0 500 500" fill="none" xmlns="http://www.w3.org/2000/svg">
<path d="M283.938 176H216.062C193.972 176 176 193.972 176 216.062V283.939C176 306.028 193.972 324 216.062 324H283.939C306.028 324 324 306.028 324 283.939V216.062C324 193.972 306.028 176 283.938 176V176ZM250 290.468C227.686 290.468 209.532 272.314 209.532 250C209.532 227.686 227.686 209.532 250 209.532C272.314 209.532 290.468 227.686 290.468 250C290.468 272.314 272.314 290.468 250 290.468V290.468ZM291.435 219.076C284.841 219.076 279.478 213.712 279.478 207.118C279.478 200.524 284.841 195.159 291.435 195.159C298.03 195.159 303.394 200.524 303.394 207.118C303.394 213.712 298.03 219.076 291.435 219.076Z" fill="white"/>
<path d="M250 219C232.907 219 219 232.906 219 250C219 267.093 232.907 281 250 281C267.094 281 281 267.093 281 250C281 232.906 267.094 219 250 219V219Z" fill="white"/>
<path d="M291.999 203C290.346 203 289 204.795 289 207C289 209.205 290.346 211 291.999 211C293.654 211 295 209.206 295 207C295 204.794 293.654 203 291.999 203Z" fill="white"/>
</svg>
