<svg class="hover" width="500" height="500" viewBox="0 0 500 500" fill="none" xmlns="http://www.w3.org/2000/svg">
<path fill-rule="evenodd" clip-rule="evenodd" d="M500 0H0V500H500V0ZM216.062 176H283.938C306.028 176 324 193.972 324 216.062V283.939C324 306.028 306.028 324 283.939 324H216.062C193.972 324 176 306.028 176 283.939V216.062C176 193.972 193.972 176 216.062 176ZM209.532 250C209.532 272.314 227.686 290.468 250 290.468C272.314 290.468 290.468 272.314 290.468 250C290.468 227.686 272.314 209.532 250 209.532C227.686 209.532 209.532 227.686 209.532 250ZM279.478 207.118C279.478 213.712 284.841 219.076 291.435 219.076C298.03 219.076 303.394 213.712 303.394 207.118C303.394 200.524 298.03 195.159 291.435 195.159C284.841 195.159 279.478 200.524 279.478 207.118ZM250 219C232.907 219 219 232.906 219 250C219 267.093 232.907 281 250 281C267.094 281 281 267.093 281 250C281 232.906 267.094 219 250 219ZM289 207C289 204.795 290.346 203 291.999 203C293.654 203 295 204.794 295 207C295 209.206 293.654 211 291.999 211C290.346 211 289 209.205 289 207Z" fill="white"/>
</svg>

