<svg class="hover-none" width="75" height="75" viewBox="0 0 75 75" fill="none" xmlns="http://www.w3.org/2000/svg">
<path d="M44.94 34C44.94 34.17 44.94 34.34 44.94 34.52C44.9424 36.589 44.3876 38.6205 43.3338 40.401C42.28 42.1815 40.7661 43.6454 38.9511 44.6388C37.1362 45.6322 35.0872 46.1185 33.0195 46.0465C30.9517 45.9746 28.9415 45.3471 27.2 44.23C27.5317 44.2715 27.8657 44.2915 28.2 44.29C30.0128 44.2862 31.7725 43.6773 33.2 42.56C32.3559 42.5376 31.5394 42.2546 30.8626 41.7497C30.1858 41.2448 29.6819 40.5427 29.42 39.74C29.6703 39.789 29.9249 39.8124 30.18 39.81C30.5413 39.811 30.9011 39.764 31.25 39.67C30.329 39.4825 29.5016 38.9813 28.9089 38.2518C28.3162 37.5224 27.995 36.6099 28 35.67C28.5602 35.9832 29.1884 36.1549 29.83 36.17C28.9608 35.6037 28.3457 34.7219 28.1143 33.7107C27.883 32.6994 28.0535 31.6379 28.59 30.75C29.6039 32.0058 30.8721 33.0328 32.3113 33.7636C33.7504 34.4943 35.3278 34.9123 36.94 34.99C36.8705 34.6883 36.837 34.3795 36.84 34.07C36.841 33.2589 37.0855 32.4667 37.5419 31.7961C37.9983 31.1256 38.6455 30.6075 39.3998 30.309C40.154 30.0105 40.9805 29.9454 41.7722 30.1221C42.5639 30.2988 43.2842 30.7092 43.84 31.3C44.7454 31.1088 45.6135 30.771 46.41 30.3C46.1131 31.2406 45.4792 32.0383 44.63 32.54C45.4484 32.4218 46.2461 32.1896 47 31.85C46.4519 32.6877 45.7535 33.4166 44.94 34Z" fill="black"/>
</svg>
