<svg class="hover" width="75" height="75" viewBox="0 0 75 75" fill="none" xmlns="http://www.w3.org/2000/svg">
<path d="M0 0V75H75V0H0ZM45.79 39.56C46.5828 40.2728 47.3372 41.0272 48.05 41.82C48.3604 42.1782 48.6289 42.5707 48.85 42.99C49.16 43.59 48.85 44.25 48.34 44.29H45C44.6025 44.3225 44.2029 44.2616 43.8331 44.1123C43.4633 43.963 43.1335 43.7294 42.87 43.43C42.41 42.95 41.98 42.43 41.53 41.96C41.3546 41.7573 41.1528 41.5791 40.93 41.43C40.8456 41.3544 40.744 41.3005 40.6342 41.2728C40.5243 41.2452 40.4093 41.2446 40.2992 41.2711C40.189 41.2977 40.0869 41.3506 40.0017 41.4253C39.9165 41.5 39.8507 41.5943 39.81 41.7C39.5788 42.1875 39.4593 42.7204 39.46 43.26C39.46 44.05 39.19 44.26 38.39 44.26C36.7299 44.4028 35.0643 44.0551 33.6 43.26C32.3226 42.5006 31.2216 41.4779 30.37 40.26C28.6891 37.8961 27.2676 35.3582 26.13 32.69C25.86 32.1 26.05 31.78 26.71 31.77C27.81 31.77 28.9 31.77 29.99 31.77C30.194 31.7784 30.3905 31.849 30.5532 31.9723C30.7159 32.0957 30.8369 32.2658 30.9 32.46C31.4837 33.9139 32.2319 35.2963 33.13 36.58C33.3498 36.9366 33.6348 37.2487 33.97 37.5C34.35 37.77 34.65 37.68 34.83 37.24C34.9411 36.9655 35.0086 36.6753 35.03 36.38C35.1227 35.3809 35.1026 34.3746 34.97 33.38C34.9482 33.0955 34.8305 32.8268 34.6361 32.6179C34.4418 32.4089 34.1822 32.2722 33.9 32.23C33.58 32.17 33.62 32.05 33.78 31.86C33.8937 31.7011 34.0438 31.5719 34.2179 31.4832C34.3919 31.3944 34.5847 31.3487 34.78 31.35H38.56C39.16 31.47 39.29 31.74 39.37 32.35V36.55C39.37 36.79 39.48 37.48 39.9 37.63C40.32 37.78 40.46 37.47 40.66 37.26C41.5288 36.2784 42.2467 35.173 42.79 33.98C43.05 33.46 43.27 32.98 43.48 32.39C43.5326 32.2072 43.6472 32.0483 43.8041 31.9407C43.961 31.833 44.1505 31.7833 44.34 31.8H48.34C48.96 31.91 49.13 32.17 48.94 32.8C48.5936 33.7117 48.1041 34.5624 47.49 35.32C46.88 36.16 46.23 36.97 45.63 37.82C45.03 38.67 45.11 38.89 45.79 39.56Z" fill="black"/>
</svg>
