<svg class="hover-none" width="75" height="75" viewBox="0 0 75 75" fill="none" xmlns="http://www.w3.org/2000/svg">
<path d="M43.57 38.43L33.29 45.89C33.1603 45.9685 33.0116 46.0101 32.86 46.0101C32.7084 46.0101 32.5597 45.9685 32.43 45.89C32.2993 45.8157 32.1906 45.7081 32.1151 45.5781C32.0395 45.4481 31.9998 45.3004 32 45.15V30.21C31.9998 30.0596 32.0395 29.9119 32.1151 29.7819C32.1906 29.6519 32.2993 29.5443 32.43 29.47C32.5597 29.3915 32.7084 29.3499 32.86 29.3499C33.0116 29.3499 33.1603 29.3915 33.29 29.47L43.57 36.93C43.7007 37.0068 43.809 37.1164 43.8842 37.248C43.9595 37.3795 43.9991 37.5284 43.9991 37.68C43.9991 37.8316 43.9595 37.9805 43.8842 38.112C43.809 38.2436 43.7007 38.3532 43.57 38.43Z" fill="black"/>
</svg>
