<svg xmlns="http://www.w3.org/2000/svg" viewBox="0 0 590 736" class="svg-about">
    <defs>
        <linearGradient id="Gradient">
            <stop offset="0" stop-color="#3fbc47" stop-opacity="1" />
            <stop offset="1" stop-color="#59c259" stop-opacity="1" />
        </linearGradient>
        <mask id="Mask">
            <g><rect x="11" y="11" width="568" height="714" stroke="#fff" style="fill:none"/><path d="M568,22V714H22V22H568M590,0H0V736H590V0Z" style="fill:#fff"/><path d="M440.6,150.2v-21c0-10-3.8-13.2-10.8-13.2H419.4v47.4h10.4C436.8,163.4,440.6,160.2,440.6,150.2Z" style="fill:none"/><path d="M292.6,150.2v-21c0-10-3.8-13.2-10.8-13.2H271.4v47.4h10.4C288.8,163.4,292.6,160.2,292.6,150.2Z" style="fill:none"/><polygon points="117.3 191.6 138.5 191.6 127.9 120.8 117.3 191.6" style="fill:none"/><path d="M113.9,96,91.5,236h20.2l3.8-25.4h27l3.8,25.4h22.2L146.1,96Zm3.4,95.6,10.6-70.8,10.6,70.8Z" style="fill:#fff"/><path d="M271.4,183.4h10.4c22,0,32.8-12.2,32.8-34.6V130.6c0-22.4-10.8-34.6-32.8-34.6H249.4V236h22Zm0-67.4h10.4c7,0,10.8,3.2,10.8,13.2v21c0,10-3.8,13.2-10.8,13.2H271.4Z" style="fill:#fff"/><path d="M419.4,183.4h10.4c22,0,32.8-12.2,32.8-34.6V130.6c0-22.4-10.8-34.6-32.8-34.6H397.4V236h22Zm0-67.4h10.4c7,0,10.8,3.2,10.8,13.2v21c0,10-3.8,13.2-10.8,13.2H419.4Z" style="fill:#fff"/><polygon points="92 436 152 436 152 416 114 416 114 375 144.2 375 144.2 355 114 355 114 316 152 316 152 296 92 296 92 436" style="fill:#fff"/><polygon points="307.2 416 271 416 271 296 249 296 249 436 307.2 436 307.2 416" style="fill:#fff"/><path d="M428.82,434.93c20.95,0,31.81-12.41,31.81-34.14,0-38.83-41.71-44.07-41.71-72,0-9.7,3.88-13.39,10.67-13.39s10.67,3.69,10.67,13.39v5.62h20.18v-4.27c0-21.72-10.67-34.14-31.44-34.14s-31.42,12.42-31.42,34.12c0,38.82,41.71,44.06,41.71,72,0,9.7-4.27,13.19-11.06,13.19s-11.05-3.49-11.05-13.19v-9.7H397v8.34C397,422.49,407.87,434.93,428.82,434.93Z" style="fill:#fff"/><rect x="92" y="496" width="22" height="140" style="fill:#fff"/><polygon points="299.2 579.8 276.6 496 249 496 249 636 268.8 636 268.8 534.6 296.2 636 318.8 636 318.8 496 299.2 496 299.2 579.8" style="fill:#fff"/><rect x="397" y="614" width="70" height="22" style="fill:#fff"/></g>
        </mask>
    </defs>
    <rect class="aboutApp" x="0" y="0" width="100%" height="100%" mask="url(#Mask)"  fill="url(#Gradient)"/>
</svg>
