<svg class="svg-appelsin-text" xmlns="http://www.w3.org/2000/svg" viewBox="0 0 144 22"><g ><path d="M3.49,0,0,22H3.15l.59-4H8l.59,4H12L8.51,0Zm.69,15L5.83,3.9,7.48,15Z"/><path d="M26,0H21V22h3.37V13.73H26c3.37,0,5-1.91,5-5.43V5.44C31,1.92,29.34,0,26,0Zm1.66,8.52c0,1.57-.59,2.07-1.66,2.07h-1.6V3.14H26c1.07,0,1.66.51,1.66,2.08Z"/><path d="M45,0H40V22h3.37V13.73H45c3.37,0,5-1.91,5-5.43V5.44C50,1.92,48.34,0,45,0Zm1.66,8.52c0,1.57-.59,2.07-1.66,2.07h-1.6V3.14H45c1.07,0,1.66.51,1.66,2.08Z"/><polygon points="60.21 22 69.79 22 69.79 18.86 63.72 18.86 63.72 12.41 68.54 12.41 68.54 9.27 63.72 9.27 63.72 3.14 69.79 3.14 69.79 0 60.21 0 60.21 22"/><polygon points="84.88 0 81.43 0 81.43 22 90.57 22 90.57 18.86 84.88 18.86 84.88 0"/><path d="M102.43,5.19c0-1.53.62-2.12,1.69-2.12s1.69.59,1.69,2.12v.89H109V5.41C109,2,107.32,0,104,0s-5,2-5,5.4c0,6.15,6.61,7,6.61,11.4,0,1.54-.68,2.09-1.75,2.09s-1.75-.55-1.75-2.09V15.27H99v1.32C99,20,100.68,22,104,22s5-2,5-5.41C109,10.44,102.43,9.62,102.43,5.19Z"/><rect x="119.26" width="3.47" height="22"/><polygon points="140.91 0 140.91 13.17 137.35 0 133 0 133 22 136.12 22 136.12 6.07 140.44 22 144 22 144 0 140.91 0"/></g></svg>
